<svg width="300" height="21" viewBox="0 0 300 21" fill="none" xmlns="http://www.w3.org/2000/svg">
<path d="M5.86364 3.36362H7.27273V11.6818C7.27273 12.4242 7.13636 13.0549 6.86364 13.5738C6.59091 14.0928 6.20644 14.4867 5.71023 14.7557C5.21402 15.0246 4.62879 15.1591 3.95455 15.1591C3.31818 15.1591 2.75189 15.0435 2.25568 14.8125C1.75947 14.5776 1.36932 14.2443 1.08523 13.8125C0.801136 13.3807 0.659091 12.8674 0.659091 12.2727H2.04545C2.04545 12.6023 2.12689 12.8901 2.28977 13.1363C2.45644 13.3788 2.68371 13.5682 2.97159 13.7045C3.25947 13.8409 3.58712 13.9091 3.95455 13.9091C4.35985 13.9091 4.70455 13.8238 4.98864 13.6534C5.27273 13.4829 5.48864 13.2329 5.63636 12.9034C5.78788 12.5701 5.86364 12.1629 5.86364 11.6818V3.36362ZM10.5739 15H9.09659L13.3693 3.36362H14.8239L19.0966 15H17.6193L14.142 5.20453H14.0511L10.5739 15ZM11.1193 10.4545H17.0739V11.7045H11.1193V10.4545ZM24.5 15H20.9091V3.36362H24.6591C25.7879 3.36362 26.7538 3.59658 27.5568 4.06248C28.3598 4.52461 28.9754 5.18938 29.4034 6.0568C29.8314 6.92044 30.0455 7.95453 30.0455 9.15908C30.0455 10.3712 29.8295 11.4148 29.3977 12.2898C28.9659 13.161 28.3371 13.8314 27.5114 14.3011C26.6856 14.767 25.6818 15 24.5 15ZM22.3182 13.75H24.4091C25.3712 13.75 26.1686 13.5644 26.8011 13.1932C27.4337 12.822 27.9053 12.2935 28.2159 11.6079C28.5265 10.9223 28.6818 10.106 28.6818 9.15908C28.6818 8.21968 28.5284 7.41097 28.2216 6.73294C27.9148 6.05112 27.4564 5.52839 26.8466 5.16476C26.2367 4.79733 25.4773 4.61362 24.5682 4.61362H22.3182V13.75ZM32.4091 15V3.36362H33.8182V13.75H39.2273V15H32.4091ZM41.4091 15V3.36362H48.4318V4.61362H42.8182V8.54544H48.0682V9.79544H42.8182V13.75H48.5227V15H41.4091ZM49.9716 3.36362H51.5852L54.8125 8.79544H54.9489L58.1761 3.36362H59.7898L55.5852 10.2045V15H54.1761V10.2045L49.9716 3.36362Z" fill="#959595"/>
<path d="M61.2145 15V3.36362H65.8054C66.688 3.36362 67.4399 3.53218 68.0611 3.8693C68.6823 4.20264 69.1558 4.66665 69.4815 5.26135C69.8111 5.85226 69.9759 6.53408 69.9759 7.3068C69.9759 8.07953 69.8092 8.76135 69.4759 9.35226C69.1425 9.94317 68.6596 10.4034 68.027 10.7329C67.3982 11.0625 66.6368 11.2273 65.7429 11.2273H62.8168V9.25567H65.3452C65.8187 9.25567 66.2088 9.17423 66.5156 9.01135C66.8262 8.84468 67.0573 8.61551 67.2088 8.32385C67.3641 8.02839 67.4418 7.68938 67.4418 7.3068C67.4418 6.92044 67.3641 6.58332 67.2088 6.29544C67.0573 6.00377 66.8262 5.77839 66.5156 5.6193C66.205 5.45642 65.8111 5.37498 65.3338 5.37498H63.6747V15H61.2145ZM72.2358 15H69.5994L73.6165 3.36362H76.7869L80.7983 15H78.1619L75.2472 6.02271H75.1562L72.2358 15ZM72.071 10.4261H78.2983V12.3466H72.071V10.4261ZM80.3295 3.36362H83.0852L85.7386 8.37498H85.8523L88.5057 3.36362H91.2614L87.017 10.8863V15H84.5739V10.8863L80.3295 3.36362Z" fill="white"/>
<path fill-rule="evenodd" clip-rule="evenodd" d="M101.203 13.8617L101.199 13.8662L101.196 13.8707C101.018 14.1227 100.62 14.1968 100.308 13.9765C100.058 13.8002 99.9831 13.4074 100.196 13.097C100.513 12.6927 100.743 12.2201 100.894 11.7581C101.052 11.2771 101.125 10.7305 101.122 10.1944C101.119 9.65838 101.04 9.11262 100.878 8.63333C100.722 8.17295 100.486 7.7028 100.165 7.30194C99.9489 6.99377 100.02 6.60017 100.268 6.42122C100.577 6.19769 100.976 6.26749 101.157 6.51761L101.16 6.5221L101.164 6.5265C101.564 7.05405 101.892 7.64018 102.088 8.21523C102.294 8.89171 102.426 9.54608 102.429 10.1875C102.433 10.8624 102.368 11.5013 102.121 12.1302C101.851 12.8151 101.59 13.34 101.203 13.8617ZM104.095 15.1145L104.103 15.1034L104.11 15.0919C104.997 13.6713 105.509 11.957 105.499 10.1711C105.489 8.3857 104.96 6.67737 104.059 5.26646C103.863 4.95669 103.951 4.59045 104.28 4.35261C104.502 4.19288 104.917 4.24944 105.163 4.57952C106.181 6.19416 106.795 8.146 106.806 10.1642C106.817 12.2512 106.224 14.1397 105.222 15.7661C104.991 16.085 104.636 16.1743 104.33 15.9936C103.999 15.7507 103.938 15.337 104.095 15.1145ZM109.286 2.45724L109.295 2.47449L109.305 2.49097C110.684 4.73919 111.45 7.33243 111.465 10.1394C111.48 12.945 110.742 15.5451 109.388 17.8072C109.181 18.1409 108.83 18.235 108.475 18.0697C108.152 17.859 108.065 17.5098 108.234 17.1571C109.385 15.1125 110.101 12.703 110.088 10.1467C110.074 7.60176 109.408 5.19618 108.157 3.15136C107.988 2.80221 108.071 2.45448 108.391 2.24137C108.776 2.05725 109.152 2.1922 109.286 2.45724ZM113.369 0.317663L113.375 0.329447L113.382 0.340883C115.053 3.22941 116.035 6.53184 116.054 10.1149C116.073 13.6943 115.128 17.0039 113.491 19.9079C113.283 20.2378 112.934 20.3302 112.581 20.1656C112.259 19.9556 112.171 19.608 112.338 19.2564C113.915 16.5648 114.764 13.4463 114.747 10.1219C114.729 6.78887 113.772 3.68251 112.243 1.0174C112.051 0.628355 112.186 0.247321 112.454 0.111831C112.846 -0.0870443 113.232 0.0479557 113.369 0.317663Z" fill="white"/>
</svg>
